<svg xmlns="http://www.w3.org/2000/svg" viewBox="0 0 64 64">
  <defs>
    <radialGradient id="b" cx="0.5" cy="0.4" r="0.7">
      <stop offset="0%" stop-color="#FFE066"/>
      <stop offset="100%" stop-color="#F5B400"/>
    </radialGradient>
    <linearGradient id="w" x1="0" y1="0" x2="0" y2="1">
      <stop offset="0%" stop-color="#ffffff" stop-opacity="0.95"/>
      <stop offset="100%" stop-color="#cfeaff" stop-opacity="0.7"/>
    </linearGradient>
  </defs>

  <!-- fundo arredondado -->
  <rect width="64" height="64" rx="14" fill="#FFD93D"/>

  <g transform="translate(32,36)">
    <!-- asas -->
    <ellipse cx="-10" cy="-16" rx="11" ry="7" fill="url(#w)" stroke="#9ec9e8" stroke-width="1" transform="rotate(-25 -10 -16)"/>
    <ellipse cx="10" cy="-16" rx="11" ry="7" fill="url(#w)" stroke="#9ec9e8" stroke-width="1" transform="rotate(25 10 -16)"/>

    <!-- corpo -->
    <ellipse cx="0" cy="0" rx="22" ry="17" fill="url(#b)" stroke="#3a2a00" stroke-width="2"/>

    <!-- listras -->
    <path d="M -14 -10 Q 0 -14 14 -10 L 14 -4 Q 0 -8 -14 -4 Z" fill="#222"/>
    <path d="M -16 1 Q 0 -3 16 1 L 16 7 Q 0 3 -16 7 Z" fill="#222"/>
    <path d="M -12 11 Q 0 14 12 11 L 10 16 Q 0 18 -10 16 Z" fill="#222"/>

    <!-- olho -->
    <circle cx="-10" cy="-4" r="3" fill="#fff"/>
    <circle cx="-10" cy="-3" r="1.7" fill="#222"/>

    <!-- sorriso -->
    <path d="M -9 3 Q -5 6 -1 3" stroke="#3a2a00" stroke-width="1.4" fill="none" stroke-linecap="round"/>

    <!-- antena -->
    <path d="M -10 -16 Q -14 -22 -16 -25" stroke="#3a2a00" stroke-width="1.6" fill="none" stroke-linecap="round"/>
    <circle cx="-16" cy="-25" r="1.6" fill="#3a2a00"/>
  </g>
</svg>
